# xmcd
#
# Track frame offsets:
# 150
# 11488
# 26750
# 37709
# 49258
# 64126
# 75869
# 87274
# 99733
# 109329
# 122924
# 136133
# 149579
# 162708
# 175577
# 188270
# 198971
# 212640
# 226592
# 238371
# 251332
# 262216
# 275964
# 289686
# 300468
#
# Disc length: 4196 seconds
#
#
# Revision: 0
# Processed by: cddbd v1.5.1PL2 Copyright (c) Steve Scherf et al.
# Submitted via: FreeRIP 2.944 
#
DISCID=60106219
DTITLE=Teodoro and Sampaio - Forró Bailão
DYEAR=1900
DGENRE=Sertanejo
TTITLE0=whisky com guaraná
TTITLE1=a solteirona
TTITLE2=mulher perigosa
TTITLE3=amor, amasso e paixão
TTITLE4=o garrafão
TTITLE5=aqui pra ela
TTITLE6=amigo descarado
TTITLE7=vírus da paixão
TTITLE8=quem tem... tem medo
TTITLE9=raimunda
TTITLE10=já fui bom nisso
TTITLE11=fogo no rabo
TTITLE12=meu barraco caiu
TTITLE13=o pau quebrou
TTITLE14=será que vai chover
TTITLE15=agarradinho
TTITLE16=a rabada da cunhada
TTITLE17=tadinha da minha secretária
TTITLE18=mulher de peão
TTITLE19=o mala
TTITLE20=silicone
TTITLE21=se a casa cair
TTITLE22=a gostosona
TTITLE23=whisky com guaraná (instrumental)
TTITLE24=chamando a gauchada (instrumental)
EXTD=
EXTT0=
EXTT1=
EXTT2=
EXTT3=
EXTT4=
EXTT5=
EXTT6=
EXTT7=
EXTT8=
EXTT9=
EXTT10=
EXTT11=
EXTT12=
EXTT13=
EXTT14=
EXTT15=
EXTT16=
EXTT17=
EXTT18=
EXTT19=
EXTT20=
EXTT21=
EXTT22=
EXTT23=
EXTT24=
PLAYORDER=
